<svg width="57" height="56" viewBox="0 0 57 56" fill="none" xmlns="http://www.w3.org/2000/svg">
<rect x="0.935028" y="0.532471" width="55.1775" height="55.1775" rx="6.26959" fill="#F5F5F5"/>
<path fill-rule="evenodd" clip-rule="evenodd" d="M20.999 18.0882C19.6137 18.0882 18.4907 19.2112 18.4907 20.5964C18.4907 21.9817 19.6137 23.1047 20.999 23.1047H23.5073V20.5964C23.5073 19.2112 22.3843 18.0882 20.999 18.0882ZM26.0155 23.1047V20.5964C26.0155 17.8259 23.7696 15.5799 20.999 15.5799C18.2285 15.5799 15.9825 17.8259 15.9825 20.5964C15.9825 23.367 18.2285 25.613 20.999 25.613H23.5073V30.6295H20.999C18.2285 30.6295 15.9825 32.8755 15.9825 35.646C15.9825 38.4166 18.2285 40.6625 20.999 40.6625C23.7696 40.6625 26.0155 38.4166 26.0155 35.646V33.1377H31.032V35.646C31.032 38.4166 33.278 40.6625 36.0486 40.6625C38.8191 40.6625 41.0651 38.4166 41.0651 35.646C41.0651 32.8755 38.8191 30.6295 36.0486 30.6295H33.5403V25.613H36.0486C38.8191 25.613 41.0651 23.367 41.0651 20.5964C41.0651 17.8259 38.8191 15.5799 36.0486 15.5799C33.278 15.5799 31.032 17.8259 31.032 20.5964V23.1047H26.0155ZM26.0155 25.613V30.6295H31.032V25.613H26.0155ZM33.5403 23.1047H36.0486C37.4338 23.1047 38.5568 21.9817 38.5568 20.5964C38.5568 19.2112 37.4338 18.0882 36.0486 18.0882C34.6633 18.0882 33.5403 19.2112 33.5403 20.5964V23.1047ZM33.5403 33.1377V35.646C33.5403 37.0313 34.6633 38.1543 36.0486 38.1543C37.4338 38.1543 38.5568 37.0313 38.5568 35.646C38.5568 34.2607 37.4338 33.1377 36.0486 33.1377H33.5403ZM23.5073 33.1377H20.999C19.6137 33.1377 18.4907 34.2607 18.4907 35.646C18.4907 37.0313 19.6137 38.1543 20.999 38.1543C22.3843 38.1543 23.5073 37.0313 23.5073 35.646V33.1377Z" fill="black"/>
</svg>
